<svg width="851" height="271" viewBox="0 0 851 271" fill="none" xmlns="http://www.w3.org/2000/svg">
<path d="M0.504048 89.7849C1.18054 87.296 1.16246 86.4205 1.65084 85.2774C2.63484 82.9802 3.21004 80.4949 4.33513 78.2772C8.67629 69.7468 15.6113 64.6821 25.0714 63.0144C35.2551 61.2056 45.4207 59.3136 55.5935 57.4577C56.0163 57.354 56.4453 57.2767 56.8777 57.2262C58.8964 57.1032 59.9057 57.9208 59.6525 59.8454C59.2654 62.7395 58.6648 65.6336 58.0498 68.5277C57.6302 70.4848 56.241 71.2482 54.2911 71.552C45.247 72.9593 36.2391 74.4715 27.2203 75.9728C23.7763 76.5444 23.5339 76.9459 23.1866 80.314C22.4269 87.6686 21.5479 95.0088 20.7701 102.36C20.2202 107.551 19.7788 112.75 19.2507 117.941C19.0996 119.566 18.8666 121.183 18.5525 122.785C18.1509 124.724 17.2537 125.317 15.2315 124.862C11.3606 124.004 8.10833 121.967 5.93051 118.712C4.19766 116.107 3.0364 113.119 1.56764 110.34C0.977018 109.343 0.50405 107.511 0.142286 104.256C0.147109 97.9343 -0.356952 97.382 0.504048 89.7849Z" fill="black"/>
<path d="M39.9472 150.225C41.2965 155.246 34.8246 189.4 42.1178 187.197C72.9654 187.367 103.654 184.694 134.114 179.933C138.908 178.486 166.311 175.498 165.295 170.603C169.578 142.508 173.879 114.417 179.042 86.4748C181.292 62.1317 195.086 56.3362 172.382 59.7043C169.788 59.9503 169.488 60.0986 168.97 62.7575C166.25 77.2281 163.594 91.677 160.628 106.082C158.457 115.329 145.626 99.9324 145.72 95.4067C140.698 77.9842 145.973 53.9558 164.727 47.6105C171.6 46.0585 178.723 45.5738 185.738 44.9226C190.322 44.4776 195.028 45.2844 198.809 42.0755C213.279 31.3854 232.424 37.3364 248.855 38.9065C268.473 41.7354 288.077 43.7541 307.823 40.9902C305.449 47.2343 278.653 45.8053 271.983 45.9211C254.705 44.7128 237.449 43.5985 220.116 43.9892C212.284 43.9241 206.395 47.7914 201.468 53.3445C187.796 85.867 184.826 122.441 179.252 157.127C175.797 186.068 171.821 215.01 171.716 244.229C172.11 250.292 178.702 253.812 183.654 255.99C192.858 260.509 202.535 259.148 212.284 261.833C205.255 265.649 196.906 263.356 189.225 264.502C180.442 265.139 171.669 265.978 162.871 266.427C132.584 268.019 102.228 271.003 71.9018 270.24C40.5658 268.583 22.4088 270.848 24.6446 232.53C25.2632 214.803 28.7035 197.283 31.7279 179.835C34.177 172.104 34.3724 154.617 39.9472 150.225ZM47.9856 204.348C51.2414 208.664 53.3324 213.193 59.3088 212.09C64.8293 211.576 70.3607 211.193 75.8956 210.849C93.159 209.803 110.432 208.92 127.715 208.201C132.461 207.926 134.82 202.536 136.571 198.658C106.819 201.23 77.4657 201.114 47.9856 204.348ZM122.057 217.705C100.123 218.681 78.3593 220.165 56.1759 221.597C58.0498 225.034 59.6995 227.646 63.773 227.187C72.7411 226.322 81.7743 226.279 90.7678 225.776C98.2491 225.396 105.719 224.871 113.197 224.557C118.309 224.361 119.937 223.251 122.057 217.705Z" fill="black"/>
<path d="M194.93 38.7147C193.556 36.5803 193.375 34.2035 193.567 31.6892C193.773 28.9796 193.928 26.2628 193.885 23.5423C193.842 20.8218 192.264 19.0709 189.566 18.644C188.269 18.4805 186.959 18.4381 185.655 18.5174C179.783 18.7019 173.908 18.8792 168.041 19.1505C161.417 19.4761 154.796 19.9247 148.18 20.3335C144.49 20.5614 140.785 20.6952 137.113 21.0968C123.797 22.5438 110.39 23.6689 97.5726 27.8039C92.1208 29.562 86.915 32.2246 81.8105 34.8836C77.6755 37.0542 73.8517 39.8144 69.8904 42.2817C69.0258 42.8207 68.0816 43.2223 67.0614 43.7287C66.1353 41.8548 67.1627 40.8346 67.8536 39.8217C72.075 33.5858 77.3369 28.1219 83.4095 23.6689C90.9667 18.1556 99.3778 14.3354 108.129 11.2206C121.127 6.57919 134.61 4.04685 148.238 2.27059C154.388 1.47832 160.592 1.24678 166.774 0.787341C185.387 -0.598215 204.036 0.262796 222.652 0.280885C231.219 0.280885 239.789 1.40234 248.338 2.03181C254.52 2.48401 260.706 2.91089 266.882 3.45354C272.308 3.93107 277.702 4.53883 283.114 5.1068C288.309 5.6386 293.515 6.05464 298.695 6.7022C311.867 8.3446 325.042 9.95806 338.189 11.8211C354.255 14.0822 370.296 16.5241 386.333 18.9624C400.543 21.1329 414.741 23.3831 428.927 25.7129C438.162 27.2359 447.377 29.0122 456.58 30.6256C473.103 33.5197 489.623 36.391 506.141 39.2392C518.373 41.37 530.59 43.5551 542.828 45.6461C554.097 47.5743 565.388 49.3759 576.66 51.2932C582.564 52.2989 588.439 53.4638 594.34 54.5057C602.168 55.8659 610.018 57.114 617.854 58.4851C625.473 59.8164 633.074 61.2417 640.685 62.6164C647.009 63.7596 653.322 64.9643 659.66 65.9953C668.783 67.4785 677.943 68.7411 687.06 70.2714C694.566 71.5303 702.033 73.0135 709.489 74.4606C711.102 74.7753 712.846 74.9851 714.554 76.6312C713.573 76.765 713.175 76.8989 712.803 76.8555C707.08 76.226 701.353 75.6291 695.641 74.9128C686.687 73.7913 677.733 72.6445 668.794 71.4037C661.251 70.3582 653.727 69.1716 646.195 68.0393C639.524 67.0336 632.854 66.0194 626.186 64.9968C619.837 64.0273 613.495 62.9963 607.135 62.081C596.687 60.5761 586.222 59.1869 575.774 57.6603C568.9 56.6618 562.027 55.4897 555.124 54.4767C543.066 52.6896 531 50.9351 518.926 49.2131C510.844 48.0554 502.752 46.9846 494.67 45.8197C488.856 44.9804 483.068 43.9349 477.244 43.1716C466.887 41.8186 456.507 40.6393 446.132 39.3369C439.219 38.4795 432.313 37.5462 425.399 36.6924C418.486 35.8387 411.573 35.05 404.663 34.218C398.936 33.527 393.217 32.7709 387.483 32.1233C381.749 31.4758 376.019 30.9006 370.288 30.2747C363.907 29.5765 357.529 28.8277 351.147 28.1439C347.038 27.7098 342.921 27.377 338.808 26.9827C331.211 26.2592 323.65 25.5103 316.071 24.7904C312.175 24.4286 308.278 24.0343 304.375 23.734C295.813 23.0732 287.251 22.4401 278.69 21.8348C274.131 21.52 269.562 21.3753 265.004 21.0787C259.69 20.7169 254.379 20.3045 249.065 19.9138C248.631 19.8812 248.197 19.8234 247.762 19.8125C237.423 19.5846 227.08 19.2482 216.741 19.1939C212.849 19.1722 208.898 19.4688 205.299 21.3645C200.263 24.0271 198.639 28.8819 197.195 33.8562C196.721 35.4841 196.32 37.1301 195.882 38.7689L194.93 38.7147Z" fill="black"/>
<path d="M374.662 86.8909C374.662 85.3172 374.478 83.7182 374.695 82.188C375.581 75.8245 376.616 69.4828 377.531 63.123C377.871 60.7571 378.077 58.3658 378.28 55.9818C378.442 54.0753 378.077 53.4965 376.019 53.0877C372.604 52.4184 369.167 51.7926 365.708 51.4019C351.766 49.8246 338.077 50.7217 324.999 56.2784C317.874 59.3006 311.024 62.9317 304.523 67.1313C296.926 72.0369 289.112 76.5879 281.284 81.1063C276.581 83.8268 271.773 86.4785 266.791 88.6454C258.312 92.3354 249.669 95.6528 241.059 99.0426C239.634 99.6033 238.093 100.276 235.698 99.502C236.891 98.6374 237.546 97.997 238.331 97.6244C249.546 92.2775 260.656 86.6847 271.085 79.9197C279.486 74.4715 287.546 68.5097 295.805 62.8408C302.089 58.5286 308.271 54.021 314.819 50.1465C322.251 45.7454 330.537 42.9792 339.122 42.0322C347.677 41.0819 356.318 41.2351 364.833 42.488C377.133 44.2425 389.433 45.6787 401.733 47.3863C407.232 48.1496 412.676 49.2747 418.157 50.1538C424.39 51.1558 430.652 51.9915 436.878 53.0479C451.703 55.5247 466.522 58.0487 481.335 60.6196C489.063 61.9509 496.765 63.4377 504.488 64.6931C510.067 65.5975 515.703 66.2305 521.296 66.983C521.513 67.0119 521.73 67.0228 521.943 67.0626C526.534 67.92 531.125 68.7629 535.69 69.6601C536.392 69.7975 537.051 70.1738 538.125 70.5934C536.211 71.95 534.45 71.563 532.825 71.3857C524.078 70.4234 515.363 69.0632 506.594 68.4265C497.676 67.7825 488.929 66.0352 480.066 65.0982C475.724 64.6424 471.423 64.0527 467.096 63.5644C464.691 63.293 464.278 63.5643 463.558 65.8615C462.473 69.2947 461.532 72.764 460.422 76.1827C460.089 77.2065 459.409 78.1217 458.888 79.0768L458.204 78.9031C458.067 78.3352 457.77 77.7527 457.817 77.1992C458.139 73.408 458.541 69.6203 458.902 65.8326C459.188 62.8083 459.192 62.678 456.218 62.215C453.002 61.7013 449.735 61.4914 446.497 61.0863C440.452 60.3157 434.422 59.4258 428.373 58.7059C423.189 58.0909 417.976 57.7074 412.788 57.1141C404.468 56.159 396.147 55.1135 387.827 54.1078C385.341 53.8076 384.828 54.1657 384.187 56.6402C382.158 64.5447 380.208 72.4673 378.066 80.3466C377.451 82.6293 376.366 84.7854 375.498 86.9958C375.252 86.9307 374.959 86.8909 374.662 86.8909Z" fill="black"/>
<path d="M50.8399 122.749C52.8766 124.391 52.6957 126.265 52.4714 128.049C51.9505 132.249 51.2812 136.434 50.7277 140.631C50.46 144.56 46.5856 176.319 51.8673 174.771C75.6171 177.05 99.4754 174.503 123.044 171.497C128.109 171.309 137.367 167.658 141.465 169.586C141.465 171.16 140.416 171.308 139.483 171.522C109.482 179.278 78.3448 182.498 47.3923 182.013C44.5271 181.858 43.1705 180.714 42.9353 177.86C42.3131 168.838 44.2124 159.862 45.0698 150.905C46.629 141.333 46.752 131.8 50.8399 122.749Z" fill="black"/>
<path d="M850.107 231.745H564.349C563.043 231.79 561.736 231.747 560.435 231.618C558.735 231.387 557.805 230.283 557.805 228.804C557.805 227.324 558.735 226.221 560.435 225.989C561.736 225.86 563.043 225.818 564.349 225.862H850.107V231.745Z" fill="black"/>
<path d="M210.352 213.924C212.523 211.602 215.594 209.916 216.864 205.998C205.599 204.775 192.952 204.03 187.051 215.628C194.728 215.614 203.66 218.056 210.352 213.924Z" fill="black"/>
<path d="M211.593 215.476C223.283 216.777 235.07 216.972 246.797 216.059C259.252 216.276 287.958 211.906 276.338 193.854C270.64 186.857 255.743 186.343 247.198 185.689C237.315 184.965 227.41 185.859 217.515 185.884C216.219 185.851 214.95 185.508 213.815 184.882C211.481 183.623 212.006 181.369 214.137 180.439C225.351 178.12 237.181 180.439 248.609 180.11C257.939 181.814 268.814 179.445 273.412 170.057C251.344 168.44 228.853 167.911 206.818 170.419C198.859 170.95 185.814 179.152 193.035 187.968C198.863 194.943 208.721 196.194 217.255 196.368C231.617 197.218 246.464 194.559 260.511 198.155C262.913 198.879 263.21 201.331 261.379 203.075C259.086 205.025 255.638 205.195 252.784 205.51C244.174 205.635 235.564 205.635 226.954 205.51C222.432 205.347 218.883 207.261 215.627 210.155" fill="black"/>
<path d="M301.09 215.617C306.517 199.508 331.156 207.315 344.708 205.568C339.643 198.962 333.493 194.038 327.828 188.036C325.516 185.747 324.883 185.786 322.402 188.036C310.959 197.272 299.09 209.261 284.746 213.024C280.477 211.472 273.354 218.179 267.204 217.003C267.537 215.462 268.712 214.981 269.736 214.521C288.229 204.895 297.263 184.379 314.334 172.821C322.257 167.032 333.193 170.205 339.6 176.854C351.65 190.07 367.04 200.778 376.93 215.646C351.596 216.359 326.421 216.435 301.09 215.617ZM318.133 179.144C314.436 181.51 293.916 203.61 293.269 206.183C298.084 202.344 314.551 183.428 318.133 179.144Z" fill="black"/>
<path d="M791.031 198.962C793.303 194.834 795.155 191.408 797.065 188.011C799.731 183.265 802.433 178.54 805.129 173.812C805.436 173.235 805.78 172.679 806.16 172.148C810.03 167.032 816.962 167.224 820.42 172.622C821.27 174.016 821.918 175.524 822.345 177.1C825.67 188.608 828.922 200.137 832.199 211.656C832.348 212.181 832.561 212.691 832.655 213.222C832.992 215.031 832.576 215.834 830.803 215.914C827.326 216.066 823.835 216.001 820.355 215.936C818.76 215.907 818.221 214.698 817.855 213.349C816.828 209.565 815.739 205.799 814.708 202.015C813.735 198.441 812.809 194.856 811.843 191.281C811.68 190.674 811.427 190.088 810.993 188.865C810.2 190.207 809.636 191.064 809.166 191.969C805.91 198.245 802.582 204.5 799.398 210.828C796.993 215.628 793.183 217.126 788.017 216.019C785.195 215.415 783.51 213.555 782.229 211.16C778.792 204.728 775.352 198.296 771.908 191.864C771.524 191.14 770.993 190.511 770.059 189.151C769.137 192.558 768.417 195.239 767.686 197.916C766.34 202.854 765.056 207.81 763.616 212.72C762.733 215.729 762.303 215.975 759.228 216.026C756.833 216.069 754.431 216.098 752.04 216.026C749.015 215.914 748.4 215.024 749.261 212.076C752.112 202.359 754.978 192.645 757.861 182.936C758.584 180.533 759.221 178.113 759.926 175.7C760.689 173.096 762.097 170.947 764.524 169.597C768.695 167.26 773.438 168.512 776.101 172.893C778.995 177.636 781.639 182.516 784.392 187.338C786.494 190.999 788.585 194.668 791.031 198.962Z" fill="black"/>
<path d="M379.73 192.819C379.73 186.39 379.709 179.962 379.73 173.533C379.73 169.916 380.052 169.63 383.67 169.594C386.926 169.561 390.207 169.55 393.474 169.594C396.741 169.637 397.308 170.169 397.366 173.385C397.428 176.76 397.366 180.139 397.399 183.514C397.431 186.89 397.797 187.219 401.23 187.226C413.214 187.253 425.199 187.253 437.186 187.226C440.923 187.226 441.165 186.926 441.205 183.044C441.23 179.665 441.169 176.286 441.234 172.915C441.288 170.122 441.733 169.659 444.468 169.605C448.281 169.539 452.094 169.532 455.907 169.605C458.284 169.655 458.863 170.165 458.834 172.528C458.761 178.291 458.472 184.05 458.356 189.809C458.255 194.928 458.269 200.047 458.24 205.17C458.24 207.894 458.295 210.621 458.186 213.338C458.107 215.361 457.607 215.907 455.636 215.961C452.26 216.055 448.874 216.106 445.506 215.918C441.824 215.711 441.245 214.963 441.216 211.287C441.19 207.908 441.248 204.533 441.19 201.158C441.14 198.184 440.727 197.739 437.746 197.728C425.446 197.692 413.134 197.692 400.81 197.728C397.938 197.728 397.627 197.92 397.276 200.825C396.914 203.947 396.892 207.112 396.744 210.26C396.697 211.24 396.719 212.22 396.694 213.201C396.646 214.869 395.847 215.928 394.121 215.947C390.091 215.997 386.061 215.986 382.031 215.947C380.389 215.947 379.748 214.897 379.738 213.374C379.721 210.975 379.711 208.577 379.709 206.183C379.709 201.716 379.709 197.254 379.709 192.797L379.73 192.819Z" fill="black"/>
<path d="M649.118 200.698C652.953 206.02 658.712 209.38 662.163 215.501C660.669 215.744 659.754 216.008 658.838 216.019C654.808 216.066 650.775 216.019 646.745 216.04C645.765 216.088 644.789 215.891 643.905 215.468C643.021 215.044 642.256 214.406 641.68 213.613C639.477 210.784 637.01 208.161 634.741 205.379C634.314 204.816 633.757 204.363 633.118 204.06C632.479 203.757 631.776 203.611 631.069 203.636C625.73 203.636 620.39 203.585 615.054 203.636C612.522 203.668 612.088 204.16 611.997 206.783C611.925 208.852 612.037 210.925 611.925 212.991C611.802 215.255 611.201 215.885 608.922 215.972C605.876 216.073 602.819 216.077 599.773 215.972C597.686 215.889 597.024 215.248 596.991 213.128C596.902 206.92 596.902 200.71 596.991 194.497C597.017 192.486 597.574 192.048 599.549 191.867C600.414 191.788 601.293 191.828 602.161 191.828C612.949 191.828 623.733 191.864 634.521 191.788C636.584 191.758 638.637 191.488 640.638 190.981C643.17 190.355 644.646 188.366 644.513 186.365C644.375 184.296 642.762 182.715 640.088 182.255C638.794 182.073 637.487 181.999 636.181 182.035C624.846 182.02 613.511 182.013 602.175 182.013C600.902 182.013 599.643 181.875 597.834 181.774C598.297 180.617 598.453 179.777 598.92 179.159C600.992 176.359 603.156 173.627 605.272 170.86C605.723 170.241 606.32 169.744 607.008 169.41C607.697 169.076 608.458 168.917 609.223 168.946C617.937 168.946 626.663 168.711 635.367 169.065C640.649 169.279 646.01 169.709 650.923 172.216C659.276 176.467 661.653 184.187 658.455 192.265C657.16 195.521 654.501 197.67 651.509 199.381C650.8 199.804 650.051 200.192 649.118 200.698Z" fill="black"/>
<path d="M716.033 202.362C717.889 202.623 719.094 202.93 720.299 202.937C727.812 202.981 735.326 202.937 742.84 202.974C744.092 202.974 745.34 203.194 746.961 203.335C746.577 204.421 746.479 205.198 746.089 205.748C744.128 208.494 742.041 211.149 740.091 213.903C738.868 215.625 737.197 216.037 735.25 216.03C728.377 216.03 721.529 216.03 714.666 216.03C708.878 216.03 703.122 216.066 697.352 216.001C694.82 215.972 692.399 215.603 690.406 213.711C688.496 211.902 687.95 209.76 689.013 207.496C689.765 205.826 690.877 204.344 692.269 203.155C700.412 196.617 708.682 190.232 716.902 183.786C717.248 183.47 717.573 183.131 717.875 182.773C716.789 181.662 715.549 182.049 714.453 182.049C706.722 182.009 698.987 182.049 691.256 182.006C690.041 182.006 688.825 181.695 687.302 181.488C687.776 180.447 687.942 179.81 688.304 179.318C690.366 176.511 692.515 173.765 694.548 170.936C694.962 170.297 695.535 169.777 696.21 169.427C696.886 169.077 697.641 168.909 698.401 168.939C711.359 168.964 724.321 168.939 737.28 168.986C738.264 169.016 739.239 169.189 740.174 169.5C745.282 171.077 746.747 175.943 743.151 179.947C741.422 181.872 739.288 183.449 737.247 185.07C730.934 190.066 724.586 194.997 718.251 199.982C717.589 200.485 717.101 201.208 716.033 202.362Z" fill="black"/>
<path d="M539.077 212.51C536.931 211.16 535.582 210.299 534.07 208.621C531.063 205.282 529.508 201.91 529.533 197.276C529.577 189.317 529.533 181.358 529.533 173.425C529.533 172.774 529.533 172.119 529.598 171.468C529.71 169.916 530.586 169.047 532.131 169.018C535.177 168.961 538.234 168.899 541.276 169.018C543.24 169.105 543.808 169.822 543.902 172.018C544.007 174.847 543.946 177.679 543.949 180.512C543.949 185.215 543.982 189.878 543.949 194.563C543.895 201.436 546.446 202.764 551.673 203.354C556.901 203.943 562.345 203.766 567.652 203.401C572.525 203.068 574.667 200.293 574.689 195.333C574.718 188.253 574.689 181.174 574.689 174.094C574.689 173.114 574.689 172.133 574.804 171.16C574.931 169.919 575.68 169.091 576.917 169.062C580.397 168.985 583.88 168.976 587.365 169.037C588.758 169.058 589.535 169.945 589.651 171.337C589.716 172.097 589.734 172.86 589.734 173.62C589.734 181.242 589.879 188.872 589.655 196.487C589.54 199.191 588.966 201.855 587.958 204.366C585.317 211.077 579.341 213.714 572.97 215.169C567.672 216.389 562.212 216.747 556.799 216.229C552.125 215.78 547.303 215.701 542.814 214.152C541.681 213.776 542.817 214.167 539.077 212.51Z" fill="black"/>
<path d="M465.023 181.568C465.747 180.248 466.109 179.365 466.673 178.631C468.572 176.098 470.577 173.664 472.461 171.135C472.934 170.464 473.561 169.917 474.29 169.539C475.018 169.162 475.826 168.964 476.647 168.964C477.41 168.939 478.174 168.932 478.937 168.932C492.995 168.932 507.054 168.932 521.115 168.932C522.461 168.932 523.803 169.185 525.322 169.337C525.141 170.18 525.174 170.672 524.961 170.976C522.576 174.232 520.149 177.444 517.725 180.675C516.832 181.872 515.555 181.991 514.205 181.995C510.949 181.995 507.665 181.97 504.398 182.017C501.189 182.064 500.78 182.429 500.78 185.605C500.74 193.669 500.78 201.737 500.762 209.8C500.762 210.781 500.795 211.765 500.737 212.741C500.585 215.245 500.046 215.885 497.626 215.972C494.688 216.073 491.74 216.077 488.799 215.972C486.415 215.885 485.792 215.223 485.745 212.698C485.662 208.122 485.709 203.545 485.709 198.951C485.709 194.7 485.709 190.449 485.709 186.199C485.687 182.237 485.452 182.017 481.368 181.995C477.226 181.973 473.084 182.017 468.945 181.97C467.809 181.995 466.677 181.76 465.023 181.568Z" fill="black"/>
<path d="M352.381 138.511C347.852 139.864 344.668 142.49 341.919 145.819C340.327 147.743 338.54 149.509 336.8 151.303C336.456 151.665 335.921 151.828 335.382 152.135C334.296 150.963 334.72 149.794 334.958 148.658C335.172 147.624 335.418 146.6 335.642 145.602C333.757 144.296 332.05 144.741 330.386 145.193C326.798 146.155 323.434 147.811 320.484 150.069C319.475 150.84 318.401 151.516 316.982 152.515C316.885 148.742 319.193 146.705 320.806 144.082C317.608 141.347 315.702 137.932 315.582 133.508C315.463 129.083 317.88 125.951 320.495 122.865C319.493 120.51 315.861 120.814 315.716 117.478C320.112 118.136 324.5 121.117 328.881 117.348C328.425 116.519 328.045 115.818 327.484 114.794C331.138 114.729 334.358 115.64 338.312 116.328C335.49 118.278 333.302 120.018 330.625 121.132C329.224 121.703 327.933 122.515 326.812 123.53C325.115 125.122 325.119 126.67 326.566 128.436C329.536 132.054 333.399 134.463 337.614 136.362C338.31 136.694 339.079 136.843 339.848 136.793C340.618 136.744 341.362 136.498 342.009 136.08C345.33 134.022 348.76 132.082 351.838 129.695C357.019 125.672 357.934 125.679 361.472 131.044C364.395 135.479 366.041 140.45 367.134 145.573C367.726 148.163 367.302 150.882 365.951 153.17C364.458 155.706 362.827 158.159 361.067 160.517C358.994 163.267 356.653 163.151 354.711 160.401C353.441 158.593 353.593 157.464 355.098 155.767C356.425 154.342 357.634 152.813 358.716 151.194C359.602 149.791 359.844 148.166 358.549 146.492C358.025 146.803 357.442 146.955 357.189 147.327C352.215 154.646 344.827 158.375 336.84 161.374C329.709 164.052 322.633 166.902 315.662 169.97C309.152 172.846 303.47 177.312 299.137 182.957C296.76 185.993 293.71 188.51 290.982 191.278L290.429 190.916C290.595 190.251 290.599 189.469 290.961 188.937C293.084 185.79 295.175 182.61 297.512 179.625C298.981 177.752 300.974 176.297 302.534 174.485C307.598 168.61 314.266 165.216 321.11 162.029C327.43 159.088 333.837 156.31 340.005 153.083C345.211 150.359 349.328 146.314 351.896 140.891C352.086 140.5 352.247 140.095 352.377 139.679C352.409 139.291 352.41 138.9 352.381 138.511ZM332.784 139.166C330.386 139.166 326.895 139.188 324.467 142.161C327.626 141.257 330.064 140.721 332.423 139.527L332.965 139.347L334.365 138.84L334.593 138.623C334.069 138.949 333.327 138.985 333.327 138.985L332.784 139.166Z" fill="black"/>
<path d="M317.59 102.034L312.254 100.367C312.421 101.394 312.417 102.107 312.659 102.722C313.101 103.832 313.745 104.86 314.197 105.978C314.881 107.707 314.508 108.362 312.663 108.691C310.818 109.02 308.998 109.215 307.171 109.501C302.783 110.196 298.746 111.787 295.284 114.566C293.871 115.786 292.697 117.258 291.822 118.907C297.187 117.605 302.273 115.586 307.801 115.517C308.391 117.858 307.312 119.348 306.086 120.481C303.38 122.977 300.479 125.27 297.617 127.593C294.756 129.915 291.76 132.097 288.978 134.514C287.242 136.026 286.33 138.131 285.69 140.663C287.448 140.555 288.541 139.636 289.669 138.916C293.786 136.304 298.388 134.98 303.055 133.873C303.85 133.685 304.726 133.848 305.88 133.848C306.068 137.91 304.751 141.322 302.863 144.48C301.304 147.088 299.422 149.512 297.606 151.961C294.148 156.625 293.063 162.008 292.762 167.633C292.73 168.223 293.008 168.83 293.269 169.999C299.31 166.36 304.57 161.816 311.332 160.499L311.896 161.147C311.487 161.798 311.209 162.594 310.652 163.078C307.862 165.506 305.091 167.966 302.143 170.194C298.062 173.28 294.821 176.992 292.585 181.593C292.285 182.074 291.938 182.522 291.547 182.932C289.459 182.375 288.544 180.761 287.687 179.144C282.354 169.084 282.34 158.925 287.148 148.677C287.716 147.468 288.15 146.198 288.645 144.958L288.038 144.534L282.293 148.535C280.538 147.515 280.408 146.217 280.484 144.893C280.944 138.478 283.082 132.813 287.857 128.284C288.888 127.304 290.324 126.475 290.422 124.413L283.993 125.563C284.051 124.478 283.993 123.755 284.145 123.085C285.878 116.053 290.577 111.643 296.966 108.803C299.451 107.718 302.031 106.788 304.563 105.797C305.648 105.37 306.755 104.954 308.159 104.415C307.367 103.044 306.571 102.009 306.144 100.841C305.461 99.0151 304.948 97.1308 304.61 95.2115C304.4 93.9706 305.196 93.0409 306.593 93.3267C311.216 94.3287 315.275 96.2208 317.561 100.728C317.688 101 317.59 101.361 317.59 102.034Z" fill="black"/>
<path d="M378.005 159.077C377.461 159.113 376.916 159.113 376.373 159.077C374.315 158.791 373.584 157.666 374.141 155.63C374.281 155.103 374.502 154.601 374.796 154.143C375.917 152.446 375.881 150.681 375.292 148.818C374.626 146.743 374.001 144.656 373.418 142.555C372.842 140.479 371.743 139.162 369.438 138.858C366.964 138.533 366.519 137.805 366.678 135.432C366.815 133.367 367.575 132.611 369.749 132.372C373.269 131.985 376.001 133.283 377.531 136.5C379.68 141.018 381.604 145.645 383.616 150.228C383.781 150.633 383.911 151.05 384.006 151.477C385.182 156.295 383.004 159.084 378.005 159.077Z" fill="black"/>
<path d="M343.482 114.852C344.527 114.964 345.594 115.264 346.607 115.13C347.542 115.003 348.415 114.594 349.111 113.958C349.425 113.65 349.046 112.63 348.98 111.932C348.416 112.055 347.787 112.066 347.302 112.337C346.882 112.572 346.625 113.104 346.307 113.491C344.86 112.471 343.702 111.321 342.295 110.738C340.819 110.134 339.108 110.109 337.505 109.801C335.291 109.374 333.081 108.922 330.632 108.958L333.164 111.046C328.497 112.008 324.713 110.036 320.481 108.087C322.955 105.652 325.129 108.246 327.495 107.576C325.726 105.232 322.185 104.791 321.432 101.256C322.311 101.531 322.937 101.618 323.451 101.908C330.324 105.76 337.874 106.517 345.518 106.773C347.613 106.846 349.635 106.936 351.484 108.09C352.196 108.495 352.804 109.061 353.258 109.744C353.713 110.426 354.001 111.205 354.099 112.019C354.429 114.584 353.152 116.472 350.648 117.16C348.145 117.847 346.086 117.315 343.482 114.852Z" fill="black"/>
<path d="M682.628 192.493C682.628 198.6 682.628 204.703 682.628 210.809C682.628 215.418 681.984 216.012 677.267 216.041C675.096 216.041 672.904 216.106 670.726 216.008C667.908 215.881 667.108 215.038 666.96 212.177C666.888 210.762 666.931 209.344 666.931 207.926C666.931 196.806 666.931 185.686 666.931 174.568C666.931 173.588 666.931 172.607 666.985 171.627C667.061 169.919 667.991 169.015 669.681 168.997C673.059 168.964 676.442 168.888 679.81 169.018C682.024 169.105 682.57 169.84 682.596 172.549C682.653 178.764 682.621 184.976 682.625 191.191C682.628 191.622 682.628 192.056 682.628 192.493Z" fill="black"/>
<path d="M681.098 160.01C680.881 162.181 680.038 163.871 678.084 164.815C677.063 165.338 675.932 165.611 674.785 165.611C673.638 165.611 672.507 165.338 671.486 164.815C668.693 163.451 667.752 160.271 669.431 157.648C670.878 155.391 673.125 154.754 675.664 154.993C678.128 155.232 680.005 156.357 680.794 158.842C680.924 159.244 681.011 159.678 681.098 160.01Z" fill="black"/>
</svg>
