<svg width="44" height="10" viewBox="0 0 44 10" fill="none" xmlns="http://www.w3.org/2000/svg">
<path d="M-2.77311e-05 9.375V2.82955H2.35225V9.375H-2.77311e-05ZM1.17611 2.14773C0.857927 2.14773 0.5852 2.04261 0.357927 1.83239C0.130654 1.62216 0.0170178 1.36932 0.0170178 1.07386C0.0170178 0.778409 0.130654 0.525568 0.357927 0.315341C0.5852 0.105114 0.857927 0 1.17611 0C1.49713 0 1.76986 0.105114 1.99429 0.315341C2.22156 0.525568 2.3352 0.778409 2.3352 1.07386C2.3352 1.36932 2.22156 1.62216 1.99429 1.83239C1.76986 2.04261 1.49713 2.14773 1.17611 2.14773ZM9.53371 4.96023H7.36894C7.35757 4.8267 7.3107 4.71165 7.22831 4.61506C7.14592 4.51847 7.03939 4.4446 6.90871 4.39347C6.78087 4.33949 6.63882 4.3125 6.48257 4.3125C6.28087 4.3125 6.10757 4.34943 5.96269 4.4233C5.8178 4.49716 5.74678 4.60227 5.74962 4.73864C5.74678 4.83523 5.78797 4.92472 5.8732 5.0071C5.96126 5.08949 6.1303 5.15341 6.3803 5.19886L7.70984 5.4375C8.3803 5.55966 8.87888 5.76562 9.20558 6.0554C9.53513 6.34233 9.70132 6.72727 9.70416 7.21023C9.70132 7.67614 9.56212 8.08097 9.28655 8.42472C9.01382 8.76562 8.64024 9.02983 8.16581 9.21733C7.69422 9.40199 7.15587 9.49432 6.55075 9.49432C5.55075 9.49432 4.76808 9.28977 4.20274 8.88068C3.64024 8.47159 3.32632 7.93182 3.26098 7.26136H5.59621C5.62746 7.46875 5.72973 7.62926 5.90303 7.7429C6.07916 7.85369 6.30075 7.90909 6.5678 7.90909C6.78371 7.90909 6.96126 7.87216 7.10047 7.7983C7.24251 7.72443 7.31496 7.61932 7.3178 7.48295C7.31496 7.35795 7.25246 7.25852 7.1303 7.18466C7.01098 7.1108 6.82348 7.05114 6.5678 7.00568L5.40871 6.80114C4.74109 6.68466 4.24109 6.46307 3.90871 6.13636C3.57632 5.80966 3.41155 5.3892 3.41439 4.875C3.41155 4.42045 3.53087 4.03551 3.77234 3.72017C4.01666 3.40199 4.36467 3.16051 4.81638 2.99574C5.27092 2.82813 5.80928 2.74432 6.43144 2.74432C7.37746 2.74432 8.1232 2.94034 8.66865 3.33239C9.21695 3.72443 9.5053 4.26705 9.53371 4.96023ZM14.5089 2.82955V4.53409H10.1964V2.82955H14.5089ZM11.0316 1.26136H13.3839V7.26989C13.3839 7.3608 13.3995 7.4375 13.4307 7.5C13.462 7.55966 13.5103 7.60511 13.5756 7.63636C13.641 7.66477 13.7248 7.67898 13.827 7.67898C13.8981 7.67898 13.9804 7.67045 14.0742 7.65341C14.1708 7.63636 14.2418 7.62216 14.2873 7.6108L14.6282 9.2642C14.5231 9.29545 14.3725 9.33381 14.1765 9.37926C13.9833 9.42472 13.7532 9.45455 13.4861 9.46875C12.9464 9.49716 12.4932 9.44176 12.1267 9.30256C11.7603 9.16051 11.4847 8.9375 11.3 8.63352C11.1154 8.32955 11.0259 7.94886 11.0316 7.49148V1.26136ZM15.5753 9.375V0.647727H17.9446V7.46591H21.473V9.375H15.5753ZM24.2887 9.47727C23.8711 9.47727 23.5017 9.40909 23.1807 9.27273C22.8625 9.13352 22.6125 8.9233 22.4307 8.64205C22.2489 8.3608 22.158 8.00284 22.158 7.56818C22.158 7.21023 22.2191 6.90483 22.3412 6.65199C22.4634 6.39631 22.6339 6.1875 22.8526 6.02557C23.0714 5.86364 23.3256 5.74006 23.6154 5.65483C23.908 5.5696 24.2233 5.5142 24.5614 5.48864C24.9279 5.46023 25.2219 5.42614 25.4435 5.38636C25.6679 5.34375 25.8299 5.28551 25.9293 5.21165C26.0287 5.13494 26.0785 5.03409 26.0785 4.90909V4.89205C26.0785 4.72159 26.0131 4.59091 25.8824 4.5C25.7517 4.40909 25.5841 4.36364 25.3796 4.36364C25.1552 4.36364 24.9719 4.41335 24.8299 4.51278C24.6907 4.60937 24.6069 4.75852 24.5785 4.96023H22.4137C22.4421 4.5625 22.5685 4.19602 22.7929 3.8608C23.0202 3.52273 23.3512 3.25284 23.7858 3.05114C24.2205 2.84659 24.7631 2.74432 25.4137 2.74432C25.8824 2.74432 26.3029 2.79972 26.675 2.91051C27.0472 3.01847 27.364 3.17045 27.6253 3.36648C27.8867 3.55966 28.0856 3.78693 28.2219 4.0483C28.3611 4.30682 28.4307 4.58807 28.4307 4.89205V9.375H26.2319V8.45455H26.1807C26.05 8.69886 25.891 8.89631 25.7035 9.04688C25.5188 9.19744 25.3071 9.30682 25.0685 9.375C24.8327 9.44318 24.5728 9.47727 24.2887 9.47727ZM25.0557 7.99432C25.2347 7.99432 25.4023 7.95739 25.5586 7.88352C25.7177 7.80966 25.8469 7.70312 25.9464 7.56392C26.0458 7.42472 26.0955 7.25568 26.0955 7.05682V6.51136C26.033 6.53693 25.9662 6.56108 25.8952 6.58381C25.827 6.60653 25.7532 6.62784 25.6736 6.64773C25.5969 6.66761 25.5145 6.68608 25.4265 6.70312C25.3412 6.72017 25.2517 6.7358 25.158 6.75C24.9762 6.77841 24.827 6.82528 24.7106 6.89062C24.5969 6.95312 24.5117 7.03125 24.4549 7.125C24.4009 7.21591 24.3739 7.31818 24.3739 7.43182C24.3739 7.61364 24.4378 7.75284 24.5657 7.84943C24.6935 7.94602 24.8569 7.99432 25.0557 7.99432ZM31.9069 5.69318V9.375H29.5547V2.82955H31.7876V4.07386H31.8558C31.9978 3.65909 32.2478 3.33381 32.6058 3.09801C32.9666 2.86222 33.387 2.74432 33.8672 2.74432C34.3302 2.74432 34.7322 2.85085 35.0731 3.06392C35.4169 3.27415 35.6825 3.56392 35.87 3.93324C36.0603 4.30256 36.1541 4.72443 36.1513 5.19886V9.375H33.799V5.69318C33.8018 5.36932 33.7194 5.11506 33.5518 4.9304C33.387 4.74574 33.1569 4.65341 32.8615 4.65341C32.6683 4.65341 32.4993 4.69602 32.3544 4.78125C32.2123 4.86364 32.103 4.98295 32.0263 5.1392C31.9495 5.29261 31.9098 5.47727 31.9069 5.69318ZM39.6818 9.46023C39.2159 9.46023 38.7869 9.33807 38.3949 9.09375C38.0057 8.84943 37.6932 8.47869 37.4574 7.98153C37.2244 7.48437 37.1079 6.85795 37.1079 6.10227C37.1079 5.3125 37.2301 4.67045 37.4744 4.17614C37.7216 3.68182 38.0397 3.3196 38.4289 3.08949C38.821 2.85938 39.2329 2.74432 39.6647 2.74432C39.9886 2.74432 40.2727 2.80114 40.517 2.91477C40.7613 3.02557 40.9659 3.17472 41.1307 3.36222C41.2954 3.54687 41.4204 3.75 41.5057 3.97159H41.5397V0.647727H43.892V9.375H41.5568V8.30114H41.5057C41.4147 8.52273 41.2841 8.72159 41.1136 8.89773C40.946 9.07102 40.7414 9.20881 40.5 9.31108C40.2613 9.41051 39.9886 9.46023 39.6818 9.46023ZM40.5511 7.65341C40.767 7.65341 40.9517 7.59091 41.1051 7.46591C41.2613 7.33807 41.3807 7.15909 41.463 6.92898C41.5483 6.69602 41.5909 6.42045 41.5909 6.10227C41.5909 5.77841 41.5483 5.50142 41.463 5.27131C41.3807 5.03835 41.2613 4.8608 41.1051 4.73864C40.9517 4.61364 40.767 4.55114 40.5511 4.55114C40.3352 4.55114 40.1505 4.61364 39.9971 4.73864C39.8466 4.8608 39.7301 5.03835 39.6477 5.27131C39.5682 5.50142 39.5284 5.77841 39.5284 6.10227C39.5284 6.42614 39.5682 6.70455 39.6477 6.9375C39.7301 7.16761 39.8466 7.34517 39.9971 7.47017C40.1505 7.59233 40.3352 7.65341 40.5511 7.65341Z" fill="white"/>
</svg>
