<svg width="65" height="9" viewBox="0 0 65 9" fill="none" xmlns="http://www.w3.org/2000/svg">
<path d="M1.11014e-05 2.02844V0.119346H7.58524V2.02844H4.96024V8.84662H2.62501V2.02844H1.11014e-05ZM8.47693 8.84662V0.119346H12.244C12.8917 0.119346 13.4585 0.237243 13.9443 0.473039C14.4301 0.708834 14.8079 1.04832 15.0778 1.49151C15.3477 1.93469 15.4826 2.46594 15.4826 3.08525C15.4826 3.71025 15.3434 4.23724 15.065 4.66622C14.7894 5.0952 14.4016 5.41906 13.9016 5.63781C13.4045 5.85656 12.8235 5.96594 12.1587 5.96594H9.90875V4.12503H11.6815C11.9599 4.12503 12.1971 4.09094 12.3931 4.02275C12.592 3.95173 12.744 3.83952 12.8491 3.68611C12.957 3.5327 13.011 3.33241 13.011 3.08525C13.011 2.83526 12.957 2.63213 12.8491 2.47588C12.744 2.31679 12.592 2.20031 12.3931 2.12645C12.1971 2.04974 11.9599 2.01139 11.6815 2.01139H10.8462V8.84662H8.47693ZM13.5906 4.84094L15.7724 8.84662H13.1985L11.0678 4.84094H13.5906ZM18.7596 8.84662H16.2028L19.0835 0.119346H22.3221L25.2028 8.84662H22.646L20.7369 2.52276H20.6687L18.7596 8.84662ZM18.2823 5.40344H23.0891V7.17616H18.2823V5.40344ZM33.5945 0.119346V8.84662H31.6172L28.4638 4.26139H28.4127V8.84662H26.0433V0.119346H28.0547L31.157 4.68753H31.2252V0.119346H33.5945ZM39.4198 2.84662C39.397 2.56253 39.2905 2.34094 39.1002 2.18185C38.9127 2.02275 38.6271 1.94321 38.2436 1.94321C37.9993 1.94321 37.799 1.97304 37.6428 2.0327C37.4894 2.08952 37.3757 2.16764 37.3019 2.26707C37.228 2.3665 37.1896 2.48014 37.1868 2.60798C37.1811 2.7131 37.1996 2.80827 37.2422 2.89349C37.2877 2.97588 37.3587 3.05116 37.4553 3.11935C37.5519 3.18469 37.6754 3.24435 37.826 3.29832C37.9766 3.3523 38.1556 3.4006 38.3629 3.44321L39.0788 3.59662C39.5618 3.69889 39.9752 3.83383 40.3189 4.00145C40.6627 4.16906 40.9439 4.36651 41.1627 4.59378C41.3814 4.81821 41.5419 5.07105 41.6442 5.3523C41.7493 5.63355 41.8033 5.94037 41.8061 6.27275C41.8033 6.84662 41.6598 7.33241 41.3757 7.73014C41.0916 8.12787 40.6854 8.43043 40.157 8.63781C39.6314 8.8452 38.9993 8.94889 38.2607 8.94889C37.5021 8.94889 36.8402 8.83668 36.2749 8.61224C35.7124 8.38781 35.2749 8.04264 34.9624 7.57673C34.6527 7.10798 34.4965 6.50855 34.4936 5.77844H36.7436C36.7578 6.04548 36.8246 6.26991 36.9439 6.45173C37.0632 6.63355 37.2308 6.77133 37.4467 6.86508C37.6655 6.95883 37.9254 7.00571 38.2266 7.00571C38.4794 7.00571 38.6911 6.97446 38.8615 6.91196C39.032 6.84946 39.1612 6.76281 39.2493 6.65202C39.3374 6.54122 39.3828 6.4148 39.3857 6.27275C39.3828 6.13923 39.3388 6.02275 39.2536 5.92332C39.1712 5.82105 39.0348 5.73014 38.8445 5.6506C38.6541 5.56821 38.397 5.4915 38.0732 5.42048L37.2038 5.23298C36.4311 5.06537 35.8217 4.78554 35.3757 4.39349C34.9325 3.99861 34.7124 3.46025 34.7152 2.77844C34.7124 2.22446 34.8601 1.74008 35.1584 1.32531C35.4595 0.907698 35.8757 0.582414 36.407 0.349459C36.9411 0.116505 37.5533 2.74181e-05 38.2436 2.74181e-05C38.9482 2.74181e-05 39.5575 0.117925 40.0717 0.353721C40.5859 0.589516 40.9823 0.921903 41.2607 1.35088C41.5419 1.77702 41.684 2.2756 41.6868 2.84662H39.4198ZM42.7074 8.84662V0.119346H48.8438V2.02844H45.0767V3.52844H48.4688V5.43753H45.0767V8.84662H42.7074ZM49.7152 8.84662V0.119346H56.005V2.02844H52.0845V3.52844H55.6811V5.43753H52.0845V6.93753H55.9879V8.84662H49.7152ZM57.1801 8.84662V0.119346H60.9471C61.5948 0.119346 62.1616 0.237243 62.6474 0.473039C63.1332 0.708834 63.511 1.04832 63.7809 1.49151C64.0508 1.93469 64.1857 2.46594 64.1857 3.08525C64.1857 3.71025 64.0465 4.23724 63.7681 4.66622C63.4926 5.0952 63.1048 5.41906 62.6048 5.63781C62.1076 5.85656 61.5266 5.96594 60.8619 5.96594H58.6119V4.12503H60.3846C60.663 4.12503 60.9002 4.09094 61.0962 4.02275C61.2951 3.95173 61.4471 3.83952 61.5522 3.68611C61.6602 3.5327 61.7141 3.33241 61.7141 3.08525C61.7141 2.83526 61.6602 2.63213 61.5522 2.47588C61.4471 2.31679 61.2951 2.20031 61.0962 2.12645C60.9002 2.04974 60.663 2.01139 60.3846 2.01139H59.5494V8.84662H57.1801ZM62.2937 4.84094L64.4755 8.84662H61.9016L59.771 4.84094H62.2937Z" fill="white"/>
</svg>
