<svg width="58" height="10" viewBox="0 0 58 10" fill="none" xmlns="http://www.w3.org/2000/svg">
<path d="M-2.77311e-05 9.375V2.82955H2.35225V9.375H-2.77311e-05ZM1.17611 2.14773C0.857927 2.14773 0.5852 2.04261 0.357927 1.83239C0.130654 1.62216 0.0170178 1.36932 0.0170178 1.07386C0.0170178 0.778409 0.130654 0.525568 0.357927 0.315341C0.5852 0.105114 0.857927 0 1.17611 0C1.49713 0 1.76986 0.105114 1.99429 0.315341C2.22156 0.525568 2.3352 0.778409 2.3352 1.07386C2.3352 1.36932 2.22156 1.62216 1.99429 1.83239C1.76986 2.04261 1.49713 2.14773 1.17611 2.14773ZM9.53371 4.96023H7.36894C7.35757 4.8267 7.3107 4.71165 7.22831 4.61506C7.14592 4.51847 7.03939 4.4446 6.90871 4.39347C6.78087 4.33949 6.63882 4.3125 6.48257 4.3125C6.28087 4.3125 6.10757 4.34943 5.96269 4.4233C5.8178 4.49716 5.74678 4.60227 5.74962 4.73864C5.74678 4.83523 5.78797 4.92472 5.8732 5.0071C5.96126 5.08949 6.1303 5.15341 6.3803 5.19886L7.70984 5.4375C8.3803 5.55966 8.87888 5.76562 9.20558 6.0554C9.53513 6.34233 9.70132 6.72727 9.70416 7.21023C9.70132 7.67614 9.56212 8.08097 9.28655 8.42472C9.01382 8.76562 8.64024 9.02983 8.16581 9.21733C7.69422 9.40199 7.15587 9.49432 6.55075 9.49432C5.55075 9.49432 4.76808 9.28977 4.20274 8.88068C3.64024 8.47159 3.32632 7.93182 3.26098 7.26136H5.59621C5.62746 7.46875 5.72973 7.62926 5.90303 7.7429C6.07916 7.85369 6.30075 7.90909 6.5678 7.90909C6.78371 7.90909 6.96126 7.87216 7.10047 7.7983C7.24251 7.72443 7.31496 7.61932 7.3178 7.48295C7.31496 7.35795 7.25246 7.25852 7.1303 7.18466C7.01098 7.1108 6.82348 7.05114 6.5678 7.00568L5.40871 6.80114C4.74109 6.68466 4.24109 6.46307 3.90871 6.13636C3.57632 5.80966 3.41155 5.3892 3.41439 4.875C3.41155 4.42045 3.53087 4.03551 3.77234 3.72017C4.01666 3.40199 4.36467 3.16051 4.81638 2.99574C5.27092 2.82813 5.80928 2.74432 6.43144 2.74432C7.37746 2.74432 8.1232 2.94034 8.66865 3.33239C9.21695 3.72443 9.5053 4.26705 9.53371 4.96023ZM9.44209 2.55682V0.647727H17.0273V2.55682H14.4023V9.375H12.0671V2.55682H9.44209ZM17.919 9.375V0.647727H21.6861C22.3338 0.647727 22.9005 0.765625 23.3863 1.00142C23.8721 1.23722 24.25 1.5767 24.5199 2.01989C24.7897 2.46307 24.9247 2.99432 24.9247 3.61364C24.9247 4.23864 24.7855 4.76562 24.5071 5.1946C24.2315 5.62358 23.8437 5.94744 23.3437 6.16619C22.8466 6.38494 22.2656 6.49432 21.6008 6.49432H19.3508V4.65341H21.1236C21.402 4.65341 21.6392 4.61932 21.8352 4.55114C22.0341 4.48011 22.1861 4.3679 22.2912 4.21449C22.3991 4.06108 22.4531 3.8608 22.4531 3.61364C22.4531 3.36364 22.3991 3.16051 22.2912 3.00426C22.1861 2.84517 22.0341 2.72869 21.8352 2.65483C21.6392 2.57812 21.402 2.53977 21.1236 2.53977H20.2883V9.375H17.919ZM23.0326 5.36932L25.2145 9.375H22.6406L20.5099 5.36932H23.0326ZM28.2017 9.375H25.6449L28.5255 0.647727H31.7642L34.6449 9.375H32.088L30.1789 3.05114H30.1108L28.2017 9.375ZM27.7244 5.93182H32.5312V7.70455H27.7244V5.93182ZM36.6062 0.647727L38.3959 6.80114H38.4641L40.2539 0.647727H42.93L40.0493 9.375H36.8107L33.93 0.647727H36.6062ZM43.7706 9.375V0.647727H50.0603V2.55682H46.1399V4.05682H49.7365V5.96591H46.1399V7.46591H50.0433V9.375H43.7706ZM51.2354 9.375V0.647727H53.6047V7.46591H57.1331V9.375H51.2354Z" fill="white"/>
</svg>
